<svg width="800" height="600" viewBox="0 0 800 600" fill="none" xmlns="http://www.w3.org/2000/svg">
<path d="M202.459 240.595C202.034 240.17 201.345 240.17 200.92 240.595L193.995 247.519C193.571 247.944 193.571 248.633 193.995 249.058C194.42 249.483 195.109 249.483 195.534 249.058L201.69 242.903L207.845 249.058C208.27 249.483 208.959 249.483 209.384 249.058C209.809 248.633 209.809 247.944 209.384 247.519L202.459 240.595ZM200.92 355.842C201.345 356.267 202.034 356.267 202.459 355.842L209.384 348.917C209.809 348.492 209.809 347.804 209.384 347.379C208.959 346.954 208.27 346.954 207.845 347.379L201.69 353.534L195.534 347.379C195.109 346.954 194.42 346.954 193.995 347.379C193.571 347.804 193.571 348.492 193.995 348.917L200.92 355.842ZM201.69 241.364L200.602 241.364L200.602 355.073L201.69 355.073L202.778 355.073L202.778 241.364L201.69 241.364Z" fill="#97006F"/>
</svg>
