<svg width="800" height="600" viewBox="0 0 800 600" fill="none" xmlns="http://www.w3.org/2000/svg">
<path d="M594.183 279.767C593.758 279.342 593.069 279.342 592.644 279.767L585.72 286.692C585.295 287.117 585.295 287.806 585.72 288.231C586.145 288.656 586.834 288.656 587.258 288.231L593.414 282.075L599.569 288.231C599.994 288.656 600.683 288.656 601.108 288.231C601.533 287.806 601.533 287.117 601.108 286.692L594.183 279.767ZM592.644 355.842C593.069 356.267 593.758 356.267 594.183 355.842L601.108 348.917C601.533 348.493 601.533 347.804 601.108 347.379C600.683 346.954 599.994 346.954 599.569 347.379L593.414 353.534L587.258 347.379C586.834 346.954 586.145 346.954 585.72 347.379C585.295 347.804 585.295 348.493 585.72 348.917L592.644 355.842ZM593.414 280.536L592.326 280.536L592.326 355.073L593.414 355.073L594.502 355.073L594.502 280.536L593.414 280.536Z" fill="#FFC400"/>
</svg>
