<svg width="800" height="600" viewBox="0 0 800 600" fill="none" xmlns="http://www.w3.org/2000/svg">
<path d="M486.139 239.291C491.942 239.291 497.275 241.17 502.138 244.927C505.343 247.414 506.947 250.206 506.947 253.3C506.946 254.958 506.228 256.533 504.791 258.025C503.354 259.462 501.807 260.18 500.149 260.18C498.878 260.18 497.524 259.738 496.087 258.854C494.706 257.915 492.992 255.953 490.948 252.968C488.903 249.929 487.023 247.884 485.31 246.834C483.597 245.784 481.69 245.258 479.59 245.258C479.198 245.258 478.815 245.276 478.441 245.309V240.191C480.895 239.592 483.461 239.291 486.139 239.291Z" fill="#FFC400"/>
</svg>
