<svg width="800" height="600" viewBox="0 0 800 600" fill="none" xmlns="http://www.w3.org/2000/svg">
<g clip-path="url(#clip0_1_2)">
<path d="M635.686 401.124V399.364H639.466C640.613 399.364 641.593 399.131 642.406 398.664C643.233 398.198 643.866 397.551 644.306 396.724C644.746 395.898 644.966 394.938 644.966 393.844C644.966 392.764 644.746 391.824 644.306 391.024C643.879 390.224 643.253 389.604 642.426 389.164C641.613 388.711 640.626 388.484 639.466 388.484H635.706V386.724H639.466C641.013 386.724 642.359 387.018 643.506 387.604C644.653 388.191 645.539 389.024 646.166 390.104C646.806 391.171 647.126 392.431 647.126 393.884C647.126 395.338 646.806 396.611 646.166 397.704C645.526 398.784 644.633 399.624 643.486 400.224C642.353 400.824 641.019 401.124 639.486 401.124H635.686ZM634.406 401.124V386.724H636.526V401.124H634.406ZM653.786 401.324C652.759 401.324 651.853 401.098 651.066 400.644C650.293 400.191 649.686 399.564 649.246 398.764C648.806 397.964 648.586 397.044 648.586 396.004C648.586 394.951 648.799 394.031 649.226 393.244C649.666 392.444 650.279 391.824 651.066 391.384C651.853 390.944 652.753 390.724 653.766 390.724C654.753 390.724 655.606 390.938 656.326 391.364C657.059 391.778 657.619 392.358 658.006 393.104C658.406 393.851 658.606 394.738 658.606 395.764C658.606 395.924 658.599 396.078 658.586 396.224C658.586 396.358 658.573 396.498 658.546 396.644H649.986V395.084H657.086L656.566 395.704C656.566 394.611 656.319 393.778 655.826 393.204C655.333 392.631 654.646 392.344 653.766 392.344C652.819 392.344 652.066 392.671 651.506 393.324C650.959 393.964 650.686 394.858 650.686 396.004C650.686 397.164 650.959 398.071 651.506 398.724C652.066 399.378 652.839 399.704 653.826 399.704C654.426 399.704 654.946 399.584 655.386 399.344C655.826 399.091 656.153 398.724 656.366 398.244H658.326C657.993 399.204 657.426 399.958 656.626 400.504C655.839 401.051 654.893 401.324 653.786 401.324ZM664.453 401.324C663.119 401.324 662.059 401.031 661.273 400.444C660.486 399.858 660.039 399.031 659.933 397.964H661.853C661.946 398.551 662.213 399.004 662.653 399.324C663.106 399.631 663.719 399.784 664.493 399.784C665.173 399.784 665.693 399.664 666.053 399.424C666.413 399.184 666.593 398.844 666.593 398.404C666.593 398.084 666.486 397.818 666.273 397.604C666.073 397.378 665.673 397.191 665.073 397.044L663.433 396.664C662.406 396.411 661.639 396.038 661.133 395.544C660.639 395.038 660.393 394.418 660.393 393.684C660.393 392.764 660.733 392.044 661.413 391.524C662.106 390.991 663.053 390.724 664.253 390.724C665.439 390.724 666.393 390.991 667.113 391.524C667.846 392.058 668.259 392.804 668.353 393.764H666.433C666.353 393.284 666.119 392.918 665.733 392.664C665.359 392.398 664.846 392.264 664.193 392.264C663.579 392.264 663.106 392.378 662.773 392.604C662.453 392.818 662.293 393.118 662.293 393.504C662.293 393.824 662.413 394.091 662.653 394.304C662.906 394.518 663.319 394.698 663.893 394.844L665.573 395.264C666.546 395.504 667.279 395.898 667.773 396.444C668.266 396.978 668.513 397.624 668.513 398.384C668.513 399.304 668.153 400.024 667.433 400.544C666.726 401.064 665.733 401.324 664.453 401.324ZM675.032 401.324C674.059 401.324 673.192 401.098 672.432 400.644C671.672 400.178 671.072 399.544 670.632 398.744C670.206 397.944 669.992 397.031 669.992 396.004C669.992 394.978 670.206 394.071 670.632 393.284C671.072 392.484 671.672 391.858 672.432 391.404C673.192 390.951 674.052 390.724 675.012 390.724C675.826 390.724 676.552 390.878 677.192 391.184C677.832 391.491 678.359 391.918 678.772 392.464C679.186 393.011 679.452 393.658 679.572 394.404H677.612C677.479 393.804 677.186 393.324 676.732 392.964C676.292 392.604 675.732 392.424 675.052 392.424C674.466 392.424 673.952 392.571 673.512 392.864C673.072 393.158 672.732 393.571 672.492 394.104C672.252 394.638 672.132 395.271 672.132 396.004C672.132 396.724 672.252 397.358 672.492 397.904C672.732 398.451 673.072 398.878 673.512 399.184C673.952 399.478 674.472 399.624 675.072 399.624C675.726 399.624 676.279 399.451 676.732 399.104C677.199 398.744 677.499 398.264 677.632 397.664H679.592C679.459 398.398 679.179 399.038 678.752 399.584C678.339 400.131 677.812 400.558 677.172 400.864C676.532 401.171 675.819 401.324 675.032 401.324ZM686.013 401.324C684.986 401.324 684.079 401.098 683.293 400.644C682.519 400.191 681.913 399.564 681.473 398.764C681.033 397.964 680.813 397.044 680.813 396.004C680.813 394.951 681.026 394.031 681.453 393.244C681.893 392.444 682.506 391.824 683.293 391.384C684.079 390.944 684.979 390.724 685.993 390.724C686.979 390.724 687.833 390.938 688.553 391.364C689.286 391.778 689.846 392.358 690.233 393.104C690.633 393.851 690.833 394.738 690.833 395.764C690.833 395.924 690.826 396.078 690.813 396.224C690.813 396.358 690.799 396.498 690.773 396.644H682.213V395.084H689.313L688.793 395.704C688.793 394.611 688.546 393.778 688.053 393.204C687.559 392.631 686.873 392.344 685.993 392.344C685.046 392.344 684.293 392.671 683.733 393.324C683.186 393.964 682.913 394.858 682.913 396.004C682.913 397.164 683.186 398.071 683.733 398.724C684.293 399.378 685.066 399.704 686.053 399.704C686.653 399.704 687.173 399.584 687.613 399.344C688.053 399.091 688.379 398.724 688.593 398.244H690.553C690.219 399.204 689.653 399.958 688.853 400.504C688.066 401.051 687.119 401.324 686.013 401.324ZM692.96 401.124V390.924H694.94V393.324H695.04V401.124H692.96ZM700.2 401.124V394.564C700.2 393.858 700.02 393.331 699.66 392.984C699.314 392.638 698.794 392.464 698.1 392.464C697.5 392.464 696.967 392.598 696.5 392.864C696.047 393.131 695.687 393.498 695.42 393.964C695.167 394.431 695.04 394.984 695.04 395.624L694.78 393.184C695.114 392.424 695.627 391.824 696.32 391.384C697.014 390.944 697.82 390.724 698.74 390.724C699.834 390.724 700.694 391.031 701.32 391.644C701.947 392.258 702.26 393.071 702.26 394.084V401.124H700.2ZM712.449 401.124V398.784L712.649 398.844C712.436 399.604 711.996 400.211 711.329 400.664C710.663 401.104 709.863 401.324 708.929 401.324C708.009 401.324 707.203 401.104 706.509 400.664C705.829 400.224 705.296 399.611 704.909 398.824C704.536 398.038 704.349 397.118 704.349 396.064C704.349 394.998 704.543 394.064 704.929 393.264C705.316 392.464 705.856 391.844 706.549 391.404C707.243 390.964 708.056 390.744 708.989 390.744C709.963 390.744 710.763 390.978 711.389 391.444C712.029 391.898 712.449 392.538 712.649 393.364L712.369 393.404V386.724H714.429V401.124H712.449ZM709.449 399.584C710.369 399.584 711.096 399.271 711.629 398.644C712.163 398.004 712.429 397.124 712.429 396.004C712.429 394.911 712.156 394.051 711.609 393.424C711.076 392.784 710.349 392.464 709.429 392.464C708.523 392.464 707.803 392.784 707.269 393.424C706.749 394.051 706.489 394.931 706.489 396.064C706.489 397.171 706.749 398.038 707.269 398.664C707.803 399.278 708.529 399.584 709.449 399.584ZM721.755 401.324C720.728 401.324 719.822 401.098 719.035 400.644C718.262 400.191 717.655 399.564 717.215 398.764C716.775 397.964 716.555 397.044 716.555 396.004C716.555 394.951 716.768 394.031 717.195 393.244C717.635 392.444 718.248 391.824 719.035 391.384C719.822 390.944 720.722 390.724 721.735 390.724C722.722 390.724 723.575 390.938 724.295 391.364C725.028 391.778 725.588 392.358 725.975 393.104C726.375 393.851 726.575 394.738 726.575 395.764C726.575 395.924 726.568 396.078 726.555 396.224C726.555 396.358 726.542 396.498 726.515 396.644H717.955V395.084H725.055L724.535 395.704C724.535 394.611 724.288 393.778 723.795 393.204C723.302 392.631 722.615 392.344 721.735 392.344C720.788 392.344 720.035 392.671 719.475 393.324C718.928 393.964 718.655 394.858 718.655 396.004C718.655 397.164 718.928 398.071 719.475 398.724C720.035 399.378 720.808 399.704 721.795 399.704C722.395 399.704 722.915 399.584 723.355 399.344C723.795 399.091 724.122 398.724 724.335 398.244H726.295C725.962 399.204 725.395 399.958 724.595 400.504C723.808 401.051 722.862 401.324 721.755 401.324ZM728.702 401.124V390.924H730.682V393.464H730.782V401.124H728.702ZM730.782 395.804L730.522 393.384C730.762 392.518 731.176 391.858 731.762 391.404C732.349 390.951 733.049 390.724 733.862 390.724C734.169 390.724 734.382 390.751 734.502 390.804V392.764C734.436 392.738 734.342 392.724 734.222 392.724C734.102 392.711 733.956 392.704 733.782 392.704C732.782 392.704 732.029 392.964 731.522 393.484C731.029 394.004 730.782 394.778 730.782 395.804Z" fill="#199700"/>
<path d="M645.274 323L640.834 316.4L635.434 308.6H637.914L642.114 314.84L647.754 323H645.274ZM641.114 314.86L645.474 308.6H647.754L642.054 316.6L641.114 314.86ZM641.774 316.68L637.394 323H635.114L640.854 314.94L641.774 316.68ZM647.965 318.46V316.66H655.025V318.46H647.965ZM657.946 323V308.6H660.026V323H657.946ZM665.186 323V316.44C665.186 315.733 665.006 315.207 664.646 314.86C664.299 314.513 663.779 314.34 663.086 314.34C662.486 314.34 661.953 314.473 661.486 314.74C661.033 315.007 660.673 315.373 660.406 315.84C660.153 316.307 660.026 316.86 660.026 317.5L659.766 315.06C660.099 314.3 660.613 313.7 661.306 313.26C661.999 312.82 662.806 312.6 663.726 312.6C664.819 312.6 665.679 312.907 666.306 313.52C666.933 314.133 667.246 314.947 667.246 315.96V323H665.186ZM674.475 323.2C673.448 323.2 672.541 322.973 671.755 322.52C670.981 322.067 670.375 321.44 669.935 320.64C669.495 319.84 669.275 318.92 669.275 317.88C669.275 316.827 669.488 315.907 669.915 315.12C670.355 314.32 670.968 313.7 671.755 313.26C672.541 312.82 673.441 312.6 674.455 312.6C675.441 312.6 676.295 312.813 677.015 313.24C677.748 313.653 678.308 314.233 678.695 314.98C679.095 315.727 679.295 316.613 679.295 317.64C679.295 317.8 679.288 317.953 679.275 318.1C679.275 318.233 679.261 318.373 679.235 318.52H670.675V316.96H677.775L677.255 317.58C677.255 316.487 677.008 315.653 676.515 315.08C676.021 314.507 675.335 314.22 674.455 314.22C673.508 314.22 672.755 314.547 672.195 315.2C671.648 315.84 671.375 316.733 671.375 317.88C671.375 319.04 671.648 319.947 672.195 320.6C672.755 321.253 673.528 321.58 674.515 321.58C675.115 321.58 675.635 321.46 676.075 321.22C676.515 320.967 676.841 320.6 677.055 320.12H679.015C678.681 321.08 678.115 321.833 677.315 322.38C676.528 322.927 675.581 323.2 674.475 323.2ZM681.403 323V312.8H683.483V323H681.403ZM681.303 310.8V308.46H683.603V310.8H681.303ZM690.624 327.3C689.344 327.3 688.284 327.007 687.444 326.42C686.618 325.847 686.118 325.08 685.944 324.12H687.904C688.038 324.56 688.331 324.907 688.784 325.16C689.251 325.413 689.871 325.54 690.644 325.54C691.644 325.54 692.391 325.293 692.884 324.8C693.378 324.307 693.624 323.573 693.624 322.6V320.4L693.804 320.44C693.604 321.213 693.171 321.827 692.504 322.28C691.838 322.72 691.038 322.94 690.104 322.94C689.211 322.94 688.424 322.727 687.744 322.3C687.064 321.873 686.538 321.28 686.164 320.52C685.791 319.747 685.604 318.847 685.604 317.82C685.604 316.78 685.798 315.867 686.184 315.08C686.571 314.293 687.111 313.687 687.804 313.26C688.511 312.833 689.331 312.62 690.264 312.62C691.224 312.62 692.018 312.853 692.644 313.32C693.284 313.773 693.691 314.42 693.864 315.26L693.704 315.28V312.8H695.684V322.58C695.684 324.047 695.231 325.2 694.324 326.04C693.431 326.88 692.198 327.3 690.624 327.3ZM690.724 321.26C691.618 321.26 692.331 320.947 692.864 320.32C693.411 319.693 693.684 318.833 693.684 317.74C693.684 316.673 693.411 315.833 692.864 315.22C692.331 314.607 691.611 314.3 690.704 314.3C689.798 314.3 689.078 314.613 688.544 315.24C688.011 315.853 687.744 316.707 687.744 317.8C687.744 318.867 688.011 319.713 688.544 320.34C689.091 320.953 689.818 321.26 690.724 321.26ZM698.61 323V308.6H700.69V323H698.61ZM705.85 323V316.44C705.85 315.733 705.67 315.207 705.31 314.86C704.963 314.513 704.443 314.34 703.75 314.34C703.15 314.34 702.617 314.473 702.15 314.74C701.697 315.007 701.337 315.373 701.07 315.84C700.817 316.307 700.69 316.86 700.69 317.5L700.43 315.06C700.763 314.3 701.277 313.7 701.97 313.26C702.663 312.82 703.47 312.6 704.39 312.6C705.483 312.6 706.343 312.907 706.97 313.52C707.597 314.133 707.91 314.947 707.91 315.96V323H705.85ZM714.747 323.2C713.56 323.2 712.687 322.927 712.127 322.38C711.58 321.82 711.307 321 711.307 319.92V310.46L713.367 309.68V319.94C713.367 320.473 713.507 320.867 713.787 321.12C714.067 321.373 714.52 321.5 715.147 321.5C715.387 321.5 715.6 321.48 715.787 321.44C715.973 321.4 716.133 321.353 716.267 321.3V322.98C716.12 323.047 715.913 323.1 715.647 323.14C715.38 323.18 715.08 323.2 714.747 323.2ZM709.267 314.46V312.8H716.267V314.46H709.267Z" fill="#FFC300"/>
<path d="M91.3239 304.2C90.3239 304.2 89.3972 304.02 88.5439 303.66C87.6906 303.287 86.9506 302.773 86.3239 302.12C85.7106 301.453 85.2306 300.667 84.8839 299.76C84.5372 298.853 84.3639 297.86 84.3639 296.78C84.3639 295.7 84.5306 294.713 84.8639 293.82C85.2106 292.913 85.6906 292.133 86.3039 291.48C86.9306 290.813 87.6706 290.3 88.5239 289.94C89.3772 289.58 90.3039 289.4 91.3039 289.4C92.4239 289.4 93.4306 289.627 94.3239 290.08C95.2172 290.52 95.9439 291.147 96.5039 291.96C97.0772 292.773 97.4306 293.72 97.5639 294.8H95.4839C95.3106 293.667 94.8506 292.787 94.1039 292.16C93.3706 291.52 92.4439 291.2 91.3239 291.2C90.3772 291.2 89.5372 291.433 88.8039 291.9C88.0839 292.353 87.5239 293 87.1239 293.84C86.7239 294.667 86.5239 295.647 86.5239 296.78C86.5239 297.9 86.7239 298.887 87.1239 299.74C87.5372 300.58 88.1039 301.233 88.8239 301.7C89.5439 302.167 90.3772 302.4 91.3239 302.4C92.4439 302.4 93.3772 302.087 94.1239 301.46C94.8839 300.82 95.3439 299.933 95.5039 298.8H97.6039C97.4572 299.893 97.0972 300.847 96.5239 301.66C95.9506 302.46 95.2172 303.087 94.3239 303.54C93.4439 303.98 92.4439 304.2 91.3239 304.2ZM105.854 304C105.788 303.747 105.741 303.467 105.714 303.16C105.701 302.853 105.694 302.48 105.694 302.04H105.594V297.18C105.594 296.527 105.428 296.04 105.094 295.72C104.774 295.387 104.261 295.22 103.554 295.22C102.874 295.22 102.328 295.353 101.914 295.62C101.514 295.887 101.281 296.267 101.214 296.76H99.2342C99.3276 295.8 99.7609 295.033 100.534 294.46C101.308 293.887 102.341 293.6 103.634 293.6C104.968 293.6 105.968 293.913 106.634 294.54C107.301 295.153 107.634 296.06 107.634 297.26V302.04C107.634 302.347 107.654 302.66 107.694 302.98C107.734 303.3 107.794 303.64 107.874 304H105.854ZM102.334 304.2C101.294 304.2 100.468 303.947 99.8542 303.44C99.2409 302.92 98.9342 302.22 98.9342 301.34C98.9342 300.433 99.2542 299.72 99.8942 299.2C100.548 298.667 101.481 298.307 102.694 298.12L106.054 297.58V299.04L103.014 299.52C102.334 299.627 101.821 299.807 101.474 300.06C101.141 300.313 100.974 300.68 100.974 301.16C100.974 301.627 101.128 301.98 101.434 302.22C101.754 302.447 102.214 302.56 102.814 302.56C103.614 302.56 104.274 302.367 104.794 301.98C105.328 301.593 105.594 301.107 105.594 300.52L105.854 302C105.614 302.707 105.188 303.253 104.574 303.64C103.961 304.013 103.214 304.2 102.334 304.2ZM115.892 304.18C114.932 304.18 114.132 303.953 113.492 303.5C112.866 303.033 112.452 302.387 112.252 301.56L112.532 301.52V308.1H110.452V293.8H112.432V296.14L112.232 296.08C112.446 295.307 112.899 294.7 113.592 294.26C114.286 293.82 115.099 293.6 116.032 293.6C116.952 293.6 117.746 293.82 118.412 294.26C119.092 294.7 119.612 295.313 119.972 296.1C120.346 296.887 120.532 297.807 120.532 298.86C120.532 299.927 120.339 300.86 119.952 301.66C119.566 302.46 119.026 303.08 118.332 303.52C117.639 303.96 116.826 304.18 115.892 304.18ZM115.452 302.46C116.359 302.46 117.079 302.14 117.612 301.5C118.146 300.86 118.412 299.98 118.412 298.86C118.412 297.753 118.146 296.893 117.612 296.28C117.079 295.653 116.352 295.34 115.432 295.34C114.526 295.34 113.799 295.66 113.252 296.3C112.719 296.927 112.452 297.8 112.452 298.92C112.452 300.013 112.719 300.88 113.252 301.52C113.799 302.147 114.532 302.46 115.452 302.46ZM126.663 304V289.6H128.743V304H126.663ZM133.903 304V297.44C133.903 296.733 133.723 296.207 133.363 295.86C133.016 295.513 132.496 295.34 131.803 295.34C131.203 295.34 130.67 295.473 130.203 295.74C129.75 296.007 129.39 296.373 129.123 296.84C128.87 297.307 128.743 297.86 128.743 298.5L128.483 296.06C128.816 295.3 129.33 294.7 130.023 294.26C130.716 293.82 131.523 293.6 132.443 293.6C133.536 293.6 134.396 293.907 135.023 294.52C135.65 295.133 135.963 295.947 135.963 296.96V304H133.903ZM143.192 304.2C142.165 304.2 141.259 303.973 140.472 303.52C139.699 303.067 139.092 302.44 138.652 301.64C138.212 300.84 137.992 299.92 137.992 298.88C137.992 297.827 138.205 296.907 138.632 296.12C139.072 295.32 139.685 294.7 140.472 294.26C141.259 293.82 142.159 293.6 143.172 293.6C144.159 293.6 145.012 293.813 145.732 294.24C146.465 294.653 147.025 295.233 147.412 295.98C147.812 296.727 148.012 297.613 148.012 298.64C148.012 298.8 148.005 298.953 147.992 299.1C147.992 299.233 147.979 299.373 147.952 299.52H139.392V297.96H146.492L145.972 298.58C145.972 297.487 145.725 296.653 145.232 296.08C144.739 295.507 144.052 295.22 143.172 295.22C142.225 295.22 141.472 295.547 140.912 296.2C140.365 296.84 140.092 297.733 140.092 298.88C140.092 300.04 140.365 300.947 140.912 301.6C141.472 302.253 142.245 302.58 143.232 302.58C143.832 302.58 144.352 302.46 144.792 302.22C145.232 301.967 145.559 301.6 145.772 301.12H147.732C147.399 302.08 146.832 302.833 146.032 303.38C145.245 303.927 144.299 304.2 143.192 304.2ZM150.12 304V293.8H152.2V304H150.12ZM150.02 291.8V289.46H152.32V291.8H150.02ZM159.342 308.3C158.062 308.3 157.002 308.007 156.162 307.42C155.335 306.847 154.835 306.08 154.662 305.12H156.622C156.755 305.56 157.048 305.907 157.502 306.16C157.968 306.413 158.588 306.54 159.362 306.54C160.362 306.54 161.108 306.293 161.602 305.8C162.095 305.307 162.342 304.573 162.342 303.6V301.4L162.522 301.44C162.322 302.213 161.888 302.827 161.222 303.28C160.555 303.72 159.755 303.94 158.822 303.94C157.928 303.94 157.142 303.727 156.462 303.3C155.782 302.873 155.255 302.28 154.882 301.52C154.508 300.747 154.322 299.847 154.322 298.82C154.322 297.78 154.515 296.867 154.902 296.08C155.288 295.293 155.828 294.687 156.522 294.26C157.228 293.833 158.048 293.62 158.982 293.62C159.942 293.62 160.735 293.853 161.362 294.32C162.002 294.773 162.408 295.42 162.582 296.26L162.422 296.28V293.8H164.402V303.58C164.402 305.047 163.948 306.2 163.042 307.04C162.148 307.88 160.915 308.3 159.342 308.3ZM159.442 302.26C160.335 302.26 161.048 301.947 161.582 301.32C162.128 300.693 162.402 299.833 162.402 298.74C162.402 297.673 162.128 296.833 161.582 296.22C161.048 295.607 160.328 295.3 159.422 295.3C158.515 295.3 157.795 295.613 157.262 296.24C156.728 296.853 156.462 297.707 156.462 298.8C156.462 299.867 156.728 300.713 157.262 301.34C157.808 301.953 158.535 302.26 159.442 302.26ZM167.327 304V289.6H169.407V304H167.327ZM174.567 304V297.44C174.567 296.733 174.387 296.207 174.027 295.86C173.681 295.513 173.161 295.34 172.467 295.34C171.867 295.34 171.334 295.473 170.867 295.74C170.414 296.007 170.054 296.373 169.787 296.84C169.534 297.307 169.407 297.86 169.407 298.5L169.147 296.06C169.481 295.3 169.994 294.7 170.687 294.26C171.381 293.82 172.187 293.6 173.107 293.6C174.201 293.6 175.061 293.907 175.687 294.52C176.314 295.133 176.627 295.947 176.627 296.96V304H174.567ZM183.464 304.2C182.277 304.2 181.404 303.927 180.844 303.38C180.297 302.82 180.024 302 180.024 300.92V291.46L182.084 290.68V300.94C182.084 301.473 182.224 301.867 182.504 302.12C182.784 302.373 183.237 302.5 183.864 302.5C184.104 302.5 184.317 302.48 184.504 302.44C184.691 302.4 184.851 302.353 184.984 302.3V303.98C184.837 304.047 184.631 304.1 184.364 304.14C184.097 304.18 183.797 304.2 183.464 304.2ZM177.984 295.46V293.8H184.984V295.46H177.984Z" fill="#97006F"/>
<path d="M98.3603 361V359.36H102.66C103.474 359.36 104.107 359.14 104.56 358.7C105.027 358.26 105.26 357.66 105.26 356.9C105.26 356.1 105.014 355.46 104.52 354.98C104.04 354.5 103.38 354.26 102.54 354.26H98.3603V352.66H102.34C103.154 352.66 103.78 352.467 104.22 352.08C104.674 351.68 104.9 351.113 104.9 350.38C104.9 349.687 104.687 349.16 104.26 348.8C103.847 348.427 103.234 348.24 102.42 348.24H98.3603V346.6H102.74C104.047 346.6 105.087 346.92 105.86 347.56C106.634 348.187 107.02 349.047 107.02 350.14C107.02 350.833 106.86 351.447 106.54 351.98C106.234 352.5 105.807 352.907 105.26 353.2C104.714 353.48 104.094 353.62 103.4 353.62L103.5 353.2C104.247 353.2 104.914 353.373 105.5 353.72C106.087 354.053 106.554 354.513 106.9 355.1C107.247 355.687 107.42 356.367 107.42 357.14C107.42 357.9 107.234 358.573 106.86 359.16C106.5 359.747 105.987 360.2 105.32 360.52C104.654 360.84 103.88 361 103 361H98.3603ZM96.8003 361V346.6H98.9203V361H96.8003ZM115.815 361C115.748 360.747 115.702 360.467 115.675 360.16C115.662 359.853 115.655 359.48 115.655 359.04H115.555V354.18C115.555 353.527 115.388 353.04 115.055 352.72C114.735 352.387 114.222 352.22 113.515 352.22C112.835 352.22 112.288 352.353 111.875 352.62C111.475 352.887 111.242 353.267 111.175 353.76H109.195C109.288 352.8 109.722 352.033 110.495 351.46C111.268 350.887 112.302 350.6 113.595 350.6C114.928 350.6 115.928 350.913 116.595 351.54C117.262 352.153 117.595 353.06 117.595 354.26V359.04C117.595 359.347 117.615 359.66 117.655 359.98C117.695 360.3 117.755 360.64 117.835 361H115.815ZM112.295 361.2C111.255 361.2 110.428 360.947 109.815 360.44C109.202 359.92 108.895 359.22 108.895 358.34C108.895 357.433 109.215 356.72 109.855 356.2C110.508 355.667 111.442 355.307 112.655 355.12L116.015 354.58V356.04L112.975 356.52C112.295 356.627 111.782 356.807 111.435 357.06C111.102 357.313 110.935 357.68 110.935 358.16C110.935 358.627 111.088 358.98 111.395 359.22C111.715 359.447 112.175 359.56 112.775 359.56C113.575 359.56 114.235 359.367 114.755 358.98C115.288 358.593 115.555 358.107 115.555 357.52L115.815 359C115.575 359.707 115.148 360.253 114.535 360.64C113.922 361.013 113.175 361.2 112.295 361.2ZM123.976 361.2C122.643 361.2 121.583 360.907 120.796 360.32C120.009 359.733 119.563 358.907 119.456 357.84H121.376C121.469 358.427 121.736 358.88 122.176 359.2C122.629 359.507 123.243 359.66 124.016 359.66C124.696 359.66 125.216 359.54 125.576 359.3C125.936 359.06 126.116 358.72 126.116 358.28C126.116 357.96 126.009 357.693 125.796 357.48C125.596 357.253 125.196 357.067 124.596 356.92L122.956 356.54C121.929 356.287 121.163 355.913 120.656 355.42C120.163 354.913 119.916 354.293 119.916 353.56C119.916 352.64 120.256 351.92 120.936 351.4C121.629 350.867 122.576 350.6 123.776 350.6C124.963 350.6 125.916 350.867 126.636 351.4C127.369 351.933 127.783 352.68 127.876 353.64H125.956C125.876 353.16 125.643 352.793 125.256 352.54C124.883 352.273 124.369 352.14 123.716 352.14C123.103 352.14 122.629 352.253 122.296 352.48C121.976 352.693 121.816 352.993 121.816 353.38C121.816 353.7 121.936 353.967 122.176 354.18C122.429 354.393 122.843 354.573 123.416 354.72L125.096 355.14C126.069 355.38 126.803 355.773 127.296 356.32C127.789 356.853 128.036 357.5 128.036 358.26C128.036 359.18 127.676 359.9 126.956 360.42C126.249 360.94 125.256 361.2 123.976 361.2ZM134.715 361.2C133.689 361.2 132.782 360.973 131.995 360.52C131.222 360.067 130.615 359.44 130.175 358.64C129.735 357.84 129.515 356.92 129.515 355.88C129.515 354.827 129.729 353.907 130.155 353.12C130.595 352.32 131.209 351.7 131.995 351.26C132.782 350.82 133.682 350.6 134.695 350.6C135.682 350.6 136.535 350.813 137.255 351.24C137.989 351.653 138.549 352.233 138.935 352.98C139.335 353.727 139.535 354.613 139.535 355.64C139.535 355.8 139.529 355.953 139.515 356.1C139.515 356.233 139.502 356.373 139.475 356.52H130.915V354.96H138.015L137.495 355.58C137.495 354.487 137.249 353.653 136.755 353.08C136.262 352.507 135.575 352.22 134.695 352.22C133.749 352.22 132.995 352.547 132.435 353.2C131.889 353.84 131.615 354.733 131.615 355.88C131.615 357.04 131.889 357.947 132.435 358.6C132.995 359.253 133.769 359.58 134.755 359.58C135.355 359.58 135.875 359.46 136.315 359.22C136.755 358.967 137.082 358.6 137.295 358.12H139.255C138.922 359.08 138.355 359.833 137.555 360.38C136.769 360.927 135.822 361.2 134.715 361.2ZM141.663 361V346.6H143.743V361H141.663ZM146.663 361V350.8H148.743V361H146.663ZM146.563 348.8V346.46H148.863V348.8H146.563ZM151.663 361V350.8H153.643V353.2H153.743V361H151.663ZM158.903 361V354.44C158.903 353.733 158.723 353.207 158.363 352.86C158.016 352.513 157.496 352.34 156.803 352.34C156.203 352.34 155.67 352.473 155.203 352.74C154.75 353.007 154.39 353.373 154.123 353.84C153.87 354.307 153.743 354.86 153.743 355.5L153.483 353.06C153.816 352.3 154.33 351.7 155.023 351.26C155.716 350.82 156.523 350.6 157.443 350.6C158.536 350.6 159.396 350.907 160.023 351.52C160.65 352.133 160.963 352.947 160.963 353.96V361H158.903ZM168.192 361.2C167.165 361.2 166.259 360.973 165.472 360.52C164.699 360.067 164.092 359.44 163.652 358.64C163.212 357.84 162.992 356.92 162.992 355.88C162.992 354.827 163.205 353.907 163.632 353.12C164.072 352.32 164.685 351.7 165.472 351.26C166.259 350.82 167.159 350.6 168.172 350.6C169.159 350.6 170.012 350.813 170.732 351.24C171.465 351.653 172.025 352.233 172.412 352.98C172.812 353.727 173.012 354.613 173.012 355.64C173.012 355.8 173.005 355.953 172.992 356.1C172.992 356.233 172.979 356.373 172.952 356.52H164.392V354.96H171.492L170.972 355.58C170.972 354.487 170.725 353.653 170.232 353.08C169.739 352.507 169.052 352.22 168.172 352.22C167.225 352.22 166.472 352.547 165.912 353.2C165.365 353.84 165.092 354.733 165.092 355.88C165.092 357.04 165.365 357.947 165.912 358.6C166.472 359.253 167.245 359.58 168.232 359.58C168.832 359.58 169.352 359.46 169.792 359.22C170.232 358.967 170.559 358.6 170.772 358.12H172.732C172.399 359.08 171.832 359.833 171.032 360.38C170.245 360.927 169.299 361.2 168.192 361.2Z" fill="#0094FE"/>
</g>
<defs>
<clipPath id="clip0_1_2">
<rect width="800" height="600" fill="white"/>
</clipPath>
</defs>
</svg>
