<svg width="800" height="600" viewBox="0 0 800 600" fill="none" xmlns="http://www.w3.org/2000/svg">
<path d="M537.373 311.753C529.157 315.021 523.844 317.34 521.435 318.709C517.069 321.141 513.946 323.683 512.067 326.336C510.188 328.989 509.249 331.89 509.249 335.04C509.249 339.019 510.437 342.335 512.813 344.987C515.19 347.585 517.926 348.884 521.021 348.884C525.174 348.884 530.625 346.18 537.373 340.774V346.156C529.712 352.073 524.897 355.497 522.927 356.428C519.943 357.809 516.765 358.5 513.394 358.5C508.144 358.5 503.805 356.703 500.379 353.111C497.008 349.519 495.322 344.794 495.322 338.937C495.322 335.234 496.152 332.028 497.81 329.32C500.075 325.562 503.998 322.025 509.58 318.709C515.184 315.412 524.449 311.407 537.373 306.69V311.753Z" fill="#199700"/>
</svg>
