<svg width="800" height="600" viewBox="0 0 800 600" fill="none" xmlns="http://www.w3.org/2000/svg">
<path d="M332.038 246.932L333.233 272.275H330.205C329.621 267.812 328.824 264.624 327.814 262.711C326.167 259.63 323.962 257.372 321.199 255.937C318.49 254.45 314.903 253.706 310.44 253.706H295.218V336.271C295.218 342.913 295.936 347.057 297.37 348.704C299.389 350.935 302.497 352.051 306.695 352.051H310.44V355H264.615V352.051H268.44C273.009 352.051 276.25 350.67 278.163 347.907C279.332 346.207 279.917 342.328 279.917 336.271V253.706H266.926C261.879 253.706 258.292 254.078 256.167 254.822C253.404 255.831 251.04 257.77 249.074 260.639C247.108 263.508 245.939 267.387 245.567 272.275H242.539L243.814 246.932H332.038ZM338.334 281.998H372.364V284.947H370.691C368.3 284.947 366.493 285.478 365.271 286.541C364.103 287.55 363.518 288.825 363.518 290.366C363.518 292.438 364.395 295.307 366.148 298.973L383.92 335.793L400.258 295.467C401.161 293.288 401.613 291.137 401.613 289.011C401.613 288.055 401.427 287.338 401.055 286.86C400.63 286.275 399.966 285.823 399.063 285.505C398.16 285.133 396.566 284.947 394.281 284.947V281.998H418.031V284.947C416.065 285.159 414.55 285.584 413.488 286.222C412.425 286.86 411.256 288.055 409.981 289.808C409.503 290.552 408.6 292.598 407.271 295.945L377.545 368.787C374.676 375.854 370.903 381.194 366.228 384.806C361.605 388.419 357.142 390.226 352.839 390.226C349.704 390.226 347.127 389.323 345.108 387.516C343.089 385.71 342.08 383.638 342.08 381.3C342.08 379.068 342.797 377.262 344.232 375.88C345.719 374.552 347.738 373.888 350.289 373.888C352.042 373.888 354.433 374.473 357.461 375.641C359.586 376.438 360.915 376.837 361.446 376.837C363.04 376.837 364.767 376.013 366.626 374.366C368.539 372.719 370.452 369.531 372.364 364.803L377.545 352.131L351.325 297.061C350.528 295.414 349.252 293.368 347.499 290.924C346.171 289.064 345.082 287.816 344.232 287.178C343.01 286.328 341.044 285.584 338.334 284.947V281.998ZM418.827 289.25L441.302 280.165H444.33V297.22C448.103 290.791 451.875 286.302 455.647 283.751C459.473 281.148 463.484 279.846 467.681 279.846C475.014 279.846 481.124 282.715 486.012 288.453C492.015 295.467 495.017 304.605 495.017 315.869C495.017 328.461 491.404 338.875 484.179 347.11C478.228 353.858 470.736 357.232 461.704 357.232C457.772 357.232 454.372 356.674 451.503 355.558C449.378 354.761 446.987 353.167 444.33 350.776V373.011C444.33 378.006 444.623 381.167 445.207 382.495C445.845 383.877 446.907 384.966 448.395 385.763C449.936 386.56 452.698 386.958 456.683 386.958V389.907H418.429V386.958H420.421C423.344 387.011 425.841 386.454 427.913 385.285C428.922 384.7 429.693 383.744 430.224 382.416C430.809 381.14 431.101 377.846 431.101 372.533V303.516C431.101 298.787 430.888 295.786 430.463 294.51C430.038 293.235 429.347 292.279 428.391 291.641C427.488 291.004 426.239 290.685 424.645 290.685C423.37 290.685 421.75 291.057 419.784 291.801L418.827 289.25ZM444.33 301.922V329.178C444.33 335.076 444.569 338.954 445.048 340.814C445.791 343.896 447.598 346.605 450.467 348.943C453.389 351.281 457.055 352.45 461.465 352.45C466.778 352.45 471.082 350.378 474.376 346.233C478.68 340.814 480.831 333.19 480.831 323.36C480.831 312.203 478.387 303.622 473.499 297.619C470.099 293.474 466.061 291.402 461.385 291.402C458.835 291.402 456.311 292.04 453.814 293.315C451.902 294.271 448.74 297.14 444.33 301.922ZM517.97 309.493C517.917 320.332 520.547 328.833 525.86 334.996C531.173 341.159 537.416 344.241 544.589 344.241C549.37 344.241 553.515 342.939 557.021 340.336C560.581 337.679 563.556 333.163 565.947 326.787L568.418 328.381C567.302 335.66 564.061 342.302 558.695 348.305C553.329 354.256 546.608 357.232 538.532 357.232C529.765 357.232 522.247 353.831 515.977 347.03C509.761 340.176 506.653 330.985 506.653 319.455C506.653 306.97 509.841 297.247 516.217 290.286C522.645 283.273 530.695 279.767 540.365 279.767C548.547 279.767 555.268 282.476 560.528 287.896C565.788 293.262 568.418 300.461 568.418 309.493H517.97ZM517.97 304.871H551.761C551.496 300.195 550.938 296.901 550.088 294.989C548.759 292.013 546.767 289.675 544.11 287.975C541.507 286.275 538.771 285.425 535.902 285.425C531.492 285.425 527.533 287.152 524.027 290.605C520.573 294.006 518.554 298.761 517.97 304.871Z" fill="white"/>
<line x1="188.088" y1="389.077" x2="613" y2="389.077" stroke="#199700" stroke-width="2.72031" stroke-dasharray="5.44 5.44"/>
<line x1="187" y1="358.065" x2="613" y2="358.065" stroke="#0094FE" stroke-width="2.72031"/>
<line x1="187.544" y1="279.992" x2="611.368" y2="279.992" stroke="white" stroke-opacity="0.5" stroke-width="1.08812" stroke-dasharray="2.18 2.18"/>
<line x1="187.544" y1="240.82" x2="611.368" y2="240.82" stroke="white" stroke-opacity="0.5" stroke-width="1.08812" stroke-dasharray="2.18 2.18"/>
<path d="M202.459 240.595C202.034 240.17 201.345 240.17 200.92 240.595L193.995 247.519C193.571 247.944 193.571 248.633 193.995 249.058C194.42 249.483 195.109 249.483 195.534 249.058L201.69 242.903L207.845 249.058C208.27 249.483 208.959 249.483 209.384 249.058C209.809 248.633 209.809 247.944 209.384 247.519L202.459 240.595ZM200.92 355.842C201.345 356.267 202.034 356.267 202.459 355.842L209.384 348.917C209.809 348.492 209.809 347.804 209.384 347.379C208.959 346.954 208.27 346.954 207.845 347.379L201.69 353.534L195.534 347.379C195.109 346.954 194.42 346.954 193.995 347.379C193.571 347.804 193.571 348.492 193.995 348.917L200.92 355.842ZM201.69 241.364L200.602 241.364L200.602 355.073L201.69 355.073L202.778 355.073L202.778 241.364L201.69 241.364Z" fill="#97006F"/>
<path d="M594.183 279.767C593.758 279.342 593.069 279.342 592.644 279.767L585.72 286.692C585.295 287.117 585.295 287.806 585.72 288.231C586.145 288.656 586.834 288.656 587.258 288.231L593.414 282.075L599.569 288.231C599.994 288.656 600.683 288.656 601.108 288.231C601.533 287.806 601.533 287.117 601.108 286.692L594.183 279.767ZM592.644 355.842C593.069 356.267 593.758 356.267 594.183 355.842L601.108 348.917C601.533 348.493 601.533 347.804 601.108 347.379C600.683 346.954 599.994 346.954 599.569 347.379L593.414 353.534L587.258 347.379C586.834 346.954 586.145 346.954 585.72 347.379C585.295 347.804 585.295 348.493 585.72 348.917L592.644 355.842ZM593.414 280.536L592.326 280.536L592.326 355.073L593.414 355.073L594.502 355.073L594.502 280.536L593.414 280.536Z" fill="#FFC400"/>
</svg>
