<svg width="800" height="600" viewBox="0 0 800 600" fill="none" xmlns="http://www.w3.org/2000/svg">
<path d="M182.233 244.591L183.477 270.953H180.327C179.719 266.31 178.89 262.994 177.84 261.005C176.127 257.8 173.833 255.451 170.959 253.959C168.141 252.411 164.41 251.638 159.768 251.638H143.935V337.519C143.935 344.427 144.681 348.738 146.173 350.451C148.273 352.772 151.506 353.933 155.872 353.933H159.768V357H112.102V353.933H116.081C120.834 353.933 124.205 352.496 126.195 349.622C127.411 347.854 128.018 343.819 128.018 337.519V251.638H114.506C109.256 251.638 105.526 252.024 103.315 252.798C100.441 253.848 97.982 255.865 95.9372 258.85C93.8924 261.834 92.6766 265.868 92.2897 270.953H89.1396L90.466 244.591H182.233ZM188.782 281.066H224.179V284.133H222.438C219.952 284.133 218.073 284.686 216.801 285.791C215.586 286.841 214.978 288.168 214.978 289.77C214.978 291.926 215.89 294.91 217.713 298.723L236.199 337.022L253.193 295.076C254.133 292.81 254.603 290.572 254.603 288.361C254.603 287.366 254.409 286.62 254.022 286.123C253.58 285.515 252.889 285.045 251.95 284.714C251.01 284.327 249.352 284.133 246.976 284.133V281.066H271.679V284.133C269.635 284.354 268.06 284.796 266.954 285.46C265.849 286.123 264.633 287.366 263.307 289.19C262.809 289.964 261.87 292.091 260.488 295.573L229.568 371.341C226.583 378.691 222.66 384.246 217.796 388.004C212.988 391.762 208.346 393.641 203.869 393.641C200.609 393.641 197.929 392.701 195.828 390.822C193.728 388.943 192.678 386.788 192.678 384.356C192.678 382.035 193.424 380.156 194.917 378.719C196.464 377.337 198.564 376.647 201.217 376.647C203.04 376.647 205.527 377.255 208.678 378.47C210.888 379.299 212.27 379.714 212.822 379.714C214.48 379.714 216.276 378.857 218.211 377.144C220.2 375.431 222.19 372.115 224.179 367.196L229.568 354.016L202.294 296.734C201.465 295.02 200.139 292.893 198.315 290.351C196.934 288.416 195.801 287.118 194.917 286.454C193.645 285.57 191.601 284.796 188.782 284.133V281.066ZM272.508 288.61L295.885 279.159H299.036V296.899C302.959 290.212 306.883 285.543 310.807 282.89C314.786 280.182 318.959 278.828 323.324 278.828C330.951 278.828 337.306 281.812 342.391 287.781C348.636 295.076 351.758 304.581 351.758 316.297C351.758 329.395 348 340.227 340.484 348.793C334.295 355.812 326.502 359.321 317.107 359.321C313.018 359.321 309.481 358.741 306.496 357.58C304.286 356.751 301.799 355.093 299.036 352.606V375.735C299.036 380.93 299.34 384.218 299.947 385.6C300.611 387.036 301.716 388.169 303.263 388.998C304.866 389.827 307.74 390.242 311.885 390.242V393.309H272.094V390.242H274.166C277.206 390.297 279.803 389.717 281.959 388.501C283.009 387.893 283.81 386.898 284.363 385.517C284.971 384.19 285.275 380.764 285.275 375.237V303.448C285.275 298.53 285.054 295.407 284.611 294.081C284.169 292.755 283.451 291.76 282.456 291.097C281.517 290.433 280.218 290.102 278.56 290.102C277.234 290.102 275.548 290.489 273.503 291.262L272.508 288.61ZM299.036 301.79V330.141C299.036 336.276 299.284 340.31 299.782 342.244C300.555 345.45 302.434 348.268 305.419 350.7C308.458 353.131 312.271 354.347 316.858 354.347C322.385 354.347 326.861 352.192 330.288 347.881C334.764 342.244 337.003 334.314 337.003 324.09C337.003 312.484 334.46 303.559 329.376 297.314C325.839 293.003 321.639 290.848 316.776 290.848C314.123 290.848 311.498 291.511 308.9 292.838C306.911 293.832 303.623 296.817 299.036 301.79ZM375.633 309.666C375.577 320.94 378.313 329.782 383.839 336.193C389.366 342.604 395.86 345.809 403.32 345.809C408.294 345.809 412.605 344.455 416.252 341.747C419.955 338.984 423.05 334.286 425.537 327.654L428.107 329.312C426.946 336.884 423.575 343.792 417.993 350.037C412.411 356.226 405.42 359.321 397.02 359.321C387.901 359.321 380.081 355.784 373.56 348.71C367.094 341.581 363.861 332.02 363.861 320.028C363.861 307.041 367.177 296.927 373.809 289.687C380.496 282.392 388.869 278.745 398.927 278.745C407.438 278.745 414.429 281.563 419.9 287.2C425.371 292.782 428.107 300.271 428.107 309.666H375.633ZM375.633 304.858H410.781C410.505 299.994 409.924 296.568 409.04 294.578C407.659 291.484 405.586 289.052 402.823 287.283C400.115 285.515 397.269 284.631 394.285 284.631C389.698 284.631 385.58 286.427 381.933 290.019C378.341 293.556 376.241 298.502 375.633 304.858ZM467.98 287.035V336.939C467.98 344.013 468.754 348.489 470.301 350.368C472.346 352.8 475.082 354.016 478.508 354.016H485.389V357H440.044V354.016H443.443C445.653 354.016 447.67 353.463 449.494 352.358C451.318 351.252 452.561 349.76 453.224 347.881C453.943 346.002 454.302 342.355 454.302 336.939V287.035H439.546V281.066H454.302V276.092C454.302 268.521 455.518 262.11 457.95 256.86C460.381 251.61 464.084 247.382 469.058 244.177C474.087 240.916 479.724 239.286 485.969 239.286C491.772 239.286 497.105 241.165 501.968 244.923C505.173 247.41 506.776 250.201 506.776 253.295C506.776 254.953 506.058 256.528 504.621 258.021C503.184 259.458 501.637 260.176 499.979 260.176C498.707 260.176 497.353 259.734 495.917 258.85C494.535 257.91 492.822 255.948 490.777 252.964C488.732 249.924 486.853 247.88 485.14 246.83C483.427 245.779 481.52 245.254 479.42 245.254C476.878 245.254 474.723 245.945 472.954 247.327C471.186 248.653 469.914 250.753 469.141 253.627C468.367 256.446 467.98 263.768 467.98 275.595V281.066H487.544V287.035H467.98ZM537.863 346.058C530.07 352.081 525.179 355.563 523.19 356.503C520.206 357.884 517.028 358.575 513.657 358.575C508.406 358.575 504.068 356.779 500.642 353.187C497.271 349.595 495.585 344.869 495.585 339.011C495.585 335.309 496.414 332.103 498.072 329.395C500.338 325.637 504.262 322.1 509.843 318.784C515.48 315.468 524.82 311.434 537.863 306.681V303.697C537.863 296.126 536.647 290.931 534.215 288.112C531.839 285.294 528.357 283.885 523.77 283.885C520.288 283.885 517.525 284.824 515.48 286.703C513.38 288.582 512.33 290.737 512.33 293.169L512.496 297.977C512.496 300.519 511.833 302.481 510.507 303.863C509.235 305.244 507.55 305.935 505.45 305.935C503.405 305.935 501.719 305.217 500.393 303.78C499.122 302.343 498.486 300.381 498.486 297.894C498.486 293.141 500.918 288.776 505.781 284.796C510.645 280.817 517.47 278.828 526.257 278.828C532.999 278.828 538.526 279.961 542.836 282.227C546.097 283.94 548.501 286.62 550.049 290.268C551.043 292.644 551.541 297.507 551.541 304.858V330.639C551.541 337.878 551.679 342.327 551.955 343.985C552.231 345.588 552.674 346.665 553.282 347.218C553.945 347.771 554.691 348.047 555.52 348.047C556.404 348.047 557.178 347.854 557.841 347.467C559.001 346.748 561.24 344.731 564.556 341.415V346.058C558.366 354.347 552.453 358.492 546.816 358.492C544.108 358.492 541.952 357.553 540.35 355.674C538.747 353.795 537.918 350.589 537.863 346.058ZM537.863 340.669V311.738C529.518 315.054 524.129 317.403 521.698 318.784C517.332 321.216 514.209 323.758 512.33 326.411C510.451 329.064 509.512 331.965 509.512 335.115C509.512 339.094 510.7 342.41 513.076 345.063C515.453 347.66 518.188 348.959 521.283 348.959C525.483 348.959 531.01 346.196 537.863 340.669ZM634.77 328.152C632.725 338.155 628.718 345.864 622.749 351.28C616.781 356.641 610.177 359.321 602.937 359.321C594.316 359.321 586.8 355.701 580.389 348.462C573.978 341.222 570.773 331.44 570.773 319.116C570.773 307.179 574.31 297.48 581.384 290.019C588.513 282.558 597.051 278.828 606.999 278.828C614.46 278.828 620.594 280.817 625.402 284.796C630.21 288.72 632.614 292.81 632.614 297.065C632.614 299.165 631.923 300.879 630.542 302.205C629.215 303.476 627.336 304.112 624.905 304.112C621.644 304.112 619.185 303.062 617.527 300.961C616.587 299.801 615.952 297.59 615.62 294.33C615.344 291.069 614.239 288.582 612.304 286.869C610.37 285.211 607.69 284.382 604.263 284.382C598.737 284.382 594.288 286.427 590.917 290.516C586.44 295.932 584.202 303.089 584.202 311.987C584.202 321.05 586.413 329.064 590.834 336.027C595.31 342.935 601.334 346.389 608.906 346.389C614.322 346.389 619.185 344.538 623.496 340.835C626.535 338.293 629.492 333.678 632.366 326.991L634.77 328.152ZM658.478 309.666C658.423 320.94 661.159 329.782 666.685 336.193C672.211 342.604 678.705 345.809 686.166 345.809C691.14 345.809 695.45 344.455 699.098 341.747C702.801 338.984 705.895 334.286 708.382 327.654L710.952 329.312C709.792 336.884 706.42 343.792 700.839 350.037C695.257 356.226 688.266 359.321 679.866 359.321C670.747 359.321 662.927 355.784 656.406 348.71C649.94 341.581 646.707 332.02 646.707 320.028C646.707 307.041 650.023 296.927 656.654 289.687C663.341 282.392 671.714 278.745 681.772 278.745C690.283 278.745 697.274 281.563 702.745 287.2C708.217 292.782 710.952 300.271 710.952 309.666H658.478ZM658.478 304.858H693.627C693.35 299.994 692.77 296.568 691.886 294.578C690.504 291.484 688.432 289.052 685.668 287.283C682.96 285.515 680.114 284.631 677.13 284.631C672.543 284.631 668.426 286.427 664.778 290.019C661.186 293.556 659.086 298.502 658.478 304.858Z" fill="white"/>
<path d="M486.139 239.291C491.942 239.291 497.275 241.17 502.138 244.927C505.343 247.414 506.947 250.206 506.947 253.3C506.946 254.958 506.228 256.533 504.791 258.025C503.354 259.462 501.807 260.18 500.149 260.18C498.878 260.18 497.524 259.738 496.087 258.854C494.706 257.915 492.992 255.953 490.948 252.968C488.903 249.929 487.023 247.884 485.31 246.834C483.597 245.784 481.69 245.258 479.59 245.258C479.198 245.258 478.815 245.276 478.441 245.309V240.191C480.895 239.592 483.461 239.291 486.139 239.291Z" fill="#FFC400"/>
<path d="M299.243 383.658C299.376 384.505 299.54 385.152 299.736 385.599C300.399 387.036 301.504 388.17 303.052 388.999C304.654 389.828 307.529 390.242 311.674 390.242V393.309H271.883V390.242H273.955C276.995 390.297 279.593 389.716 281.748 388.501C282.798 387.893 283.599 386.898 284.151 385.516C284.341 385.102 284.502 384.482 284.633 383.658H299.243Z" fill="#0094FE"/>
<path d="M159.722 353.725V356.792H159.22V353.725H159.722ZM183.43 270.745H180.281C179.673 266.103 178.843 262.786 177.793 260.797C176.08 257.592 173.786 255.243 170.913 253.751C168.094 252.204 164.364 251.43 159.722 251.43H143.888V251.593H127.972V251.43H114.459C109.21 251.43 105.48 251.816 103.269 252.59C100.395 253.64 97.9358 255.657 95.8911 258.642C93.8463 261.626 92.6304 265.661 92.2436 270.745H89.0932L90.4194 244.384H182.187L183.43 270.745Z" fill="#E7569C"/>
<path d="M537.373 311.753C529.157 315.021 523.844 317.34 521.435 318.709C517.069 321.141 513.946 323.683 512.067 326.336C510.188 328.989 509.249 331.89 509.249 335.04C509.249 339.019 510.437 342.335 512.813 344.987C515.19 347.585 517.926 348.884 521.021 348.884C525.174 348.884 530.625 346.18 537.373 340.774V346.156C529.712 352.073 524.897 355.497 522.927 356.428C519.943 357.809 516.765 358.5 513.394 358.5C508.144 358.5 503.805 356.703 500.379 353.111C497.008 349.519 495.322 344.794 495.322 338.937C495.322 335.234 496.152 332.028 497.81 329.32C500.075 325.562 503.998 322.025 509.58 318.709C515.184 315.412 524.449 311.407 537.373 306.69V311.753Z" fill="#199700"/>
</svg>
